<svg width="512" height="512" viewBox="0 0 512 512" fill="none" xmlns="http://www.w3.org/2000/svg">
  <!-- Background Circle -->
  <circle cx="256" cy="256" r="256" fill="#2563eb"/>
  
  <!-- Driver Icon -->
  <g transform="translate(128, 128)">
    <!-- Car Body -->
    <rect x="40" y="80" width="80" height="40" rx="8" fill="white"/>
    
    <!-- Car Roof -->
    <rect x="50" y="60" width="60" height="30" rx="6" fill="white"/>
    
    <!-- Wheels -->
    <circle cx="60" cy="130" r="12" fill="#1e40af"/>
    <circle cx="100" cy="130" r="12" fill="#1e40af"/>
    
    <!-- Driver Head -->
    <circle cx="80" y="40" r="12" fill="white"/>
    
    <!-- Driver Body -->
    <rect x="70" y="50" width="20" height="30" fill="white"/>
  </g>
  
  <!-- Route Lines -->
  <g stroke="white" stroke-width="4" fill="none" opacity="0.8">
    <path d="M 100 200 Q 200 150 300 200 Q 400 250 450 200"/>
    <circle cx="100" cy="200" r="6" fill="white"/>
    <circle cx="450" cy="200" r="6" fill="white"/>
  </g>
  
  <!-- Schedule Icon -->
  <g transform="translate(350, 100)">
    <rect x="0" y="0" width="40" height="50" rx="4" fill="white"/>
    <rect x="5" y="5" width="30" height="8" fill="#2563eb"/>
    <line x1="10" y1="20" x2="30" y2="20" stroke="#2563eb" stroke-width="2"/>
    <line x1="10" y1="28" x2="25" y2="28" stroke="#2563eb" stroke-width="2"/>
    <line x1="10" y1="36" x2="30" y2="36" stroke="#2563eb" stroke-width="2"/>
  </g>
</svg>
